<mxfile host="app.diagrams.net" modified="2021-03-19T05:29:27.290Z" agent="5.0 (Windows NT 10.0; Win64; x64) AppleWebKit/537.36 (KHTML, like Gecko) Chrome/89.0.4389.90 Safari/537.36" etag="a3ebHQ6Ok9XRaBIEmXq4" version="14.4.9" type="github">
  <diagram id="cGsbxUc_gqwEUw2Igp1w" name="Page-1">
    <mxGraphModel dx="1420" dy="802" grid="1" gridSize="10" guides="1" tooltips="1" connect="1" arrows="1" fold="1" page="1" pageScale="1" pageWidth="850" pageHeight="1100" math="0" shadow="0">
      <root>
        <mxCell id="0" />
        <mxCell id="1" parent="0" />
        <mxCell id="qFnHx6nQ1Tvbl4Kv-HkE-1" value="Test" style="shape=document;whiteSpace=wrap;html=1;boundedLbl=1;" vertex="1" parent="1">
          <mxGeometry x="360" y="370" width="120" height="80" as="geometry" />
        </mxCell>
      </root>
    </mxGraphModel>
  </diagram>
</mxfile>
